#N canvas 234 116 684 618 10;
#X obj 178 80 inlet;
#X obj 177 119 sel 0;
#X obj 249 83 moses;
#X obj 248 118 t b b;
#X obj 297 159 t b;
#X obj 234 230 f \$1;
#X obj 319 252 del \$2;
#X obj 356 188 inlet;
#X obj 400 187 inlet;
#X obj 444 188 inlet;
#X obj 487 188 inlet;
#X obj 319 281 f \$4;
#X obj 319 306 * 0.01;
#X obj 376 278 * \$1;
#X obj 376 308 pack 0 \$3;
#X obj 234 252 pack 0 \$2;
#X obj 543 261 inlet;
#X obj 492 300 pack 0 \$5;
#X msg 182 251 0;
#X obj 376 355 line~;
#X obj 375 385 outlet~;
#X msg 178 158 stop;
#X text 359 165 peak;
#X text 397 165 attack;
#X text 446 166 decay;
#X text 541 241 release;
#X text 488 165 sustain %;
#X text 173 58 trigger;
#X text 300 10 http://msp.ucsd.edu/techniques/v0.11/book-html/node69.html
\, see for discussion;
#X connect 0 0 1 0;
#X connect 1 0 17 0;
#X connect 1 0 21 0;
#X connect 1 1 2 0;
#X connect 2 0 3 0;
#X connect 2 1 4 0;
#X connect 3 0 4 0;
#X connect 3 1 18 0;
#X connect 4 0 5 0;
#X connect 4 0 6 0;
#X connect 5 0 15 0;
#X connect 6 0 11 0;
#X connect 7 0 5 1;
#X connect 7 0 13 1;
#X connect 8 0 6 1;
#X connect 8 0 15 1;
#X connect 9 0 14 1;
#X connect 10 0 11 1;
#X connect 11 0 12 0;
#X connect 12 0 13 0;
#X connect 13 0 14 0;
#X connect 14 0 19 0;
#X connect 15 0 19 0;
#X connect 16 0 17 1;
#X connect 17 0 19 0;
#X connect 18 0 19 0;
#X connect 19 0 20 0;
#X connect 21 0 6 0;
