#N canvas 0 50 907 508 10;
#X obj 90 37 inlet;
#X obj 90 131 clip 0 1;
#X obj 90 219 tabwrite keytable;
#N canvas 0 50 450 250 (subpatch) 0;
#X array keytable 8 float 2;
#X coords 0 127 8 0 32 32 1 0 0;
#X restore 93 258 graph;
#X obj 343 198 + 1;
#X obj 305 196 f 0;
#X obj 305 274 tabread keytable;
#X msg 90 73 \$3 \$2 \$1;
#X obj 90 101 unpack 0 0 0;
#X obj 90 168 *;
#X obj 305 36 tgl 15 0 empty empty empty 17 7 0 10 -262144 -1 -1 1
1;
#X obj 343 224 mod 8;
#X obj 305 161 until;
#X msg 305 115 8;
#X obj 305 310 sel 0;
#X text 41 419 write another table to preserve insertion order;
#X obj 466 397 outlet;
#X obj 242 24 loadbang;
#X msg 242 53 1;
#X text 37 448 handle velocity :/;
#X msg 466 370 1 \$1 64;
#X obj 432 291 t b f f b;
#X obj 434 342 f;
#X msg 405 371 1 \$1 0;
#X obj 159 169 - 1;
#X text 165 150 to 0 based...;
#X text 427 236 first \, turn off until second \, send note third \,
schedule note end;
#X obj 305 82 metro 80;
#X obj 403 316 del 70;
#X connect 0 0 7 0;
#X connect 1 0 9 0;
#X connect 4 0 11 0;
#X connect 5 0 4 0;
#X connect 5 0 6 0;
#X connect 6 0 14 0;
#X connect 7 0 8 0;
#X connect 8 0 1 0;
#X connect 8 1 9 1;
#X connect 8 2 24 0;
#X connect 9 0 2 0;
#X connect 10 0 27 0;
#X connect 11 0 5 1;
#X connect 12 0 5 0;
#X connect 13 0 12 0;
#X connect 14 1 21 0;
#X connect 17 0 18 0;
#X connect 18 0 10 0;
#X connect 20 0 16 0;
#X connect 21 0 28 0;
#X connect 21 1 22 1;
#X connect 21 2 20 0;
#X connect 21 3 12 1;
#X connect 22 0 23 0;
#X connect 23 0 16 0;
#X connect 24 0 2 1;
#X connect 27 0 13 0;
#X connect 28 0 22 0;
