#N canvas 0 50 450 300 10;
#X obj 244 121 + 1;
#X obj 177 130 f 0;
#X obj 177 95 until;
#X obj 244 183 sel 0;
#X obj 177 13 inlet;
#X obj 177 230 outlet;
#X obj 177 43 t f f;
#X obj 244 147 mod;
#X connect 0 0 7 0;
#X connect 1 0 0 0;
#X connect 1 0 5 0;
#X connect 2 0 1 0;
#X connect 3 0 2 1;
#X connect 4 0 6 0;
#X connect 6 0 2 0;
#X connect 6 1 7 1;
#X connect 7 0 1 1;
#X connect 7 0 3 0;
