#N canvas 28 519 450 479 10;
#X obj 162 281 moses 44;
#X obj 162 234 unpack 0 0;
#X obj 182 372 pack 0 0;
#X obj 271 379 pack 0 0;
#X obj 137 318 moses 36;
#X obj 212 97 inlet;
#X obj 182 405 outlet;
#X obj 271 410 outlet;
#X text 123 405 pads out;
#X text 315 411 notes out;
#X obj 317 94 inlet;
#X text 355 93 expects toggle;
#X text 103 97 expects note+vel;
#X obj 212 127 list prepend;
#X msg 281 95 0;
#X obj 281 73 loadbang;
#X obj 212 156 route 1 0;
#X text 248 179 0 value bypasses;
#X connect 0 0 4 0;
#X connect 0 1 3 0;
#X connect 1 0 0 0;
#X connect 1 1 2 1;
#X connect 1 1 3 1;
#X connect 2 0 6 0;
#X connect 3 0 7 0;
#X connect 4 0 3 0;
#X connect 4 1 2 0;
#X connect 5 0 13 0;
#X connect 10 0 13 1;
#X connect 13 0 16 0;
#X connect 14 0 13 1;
#X connect 15 0 14 0;
#X connect 16 0 1 0;
#X connect 16 1 7 0;
