#N canvas 776 47 1063 913 10;
#X obj 30 14 minilab;
#X obj 26 418 vu 15 120 empty empty -1 -8 0 10 -66577 -1 1 0;
#X obj 25 365 env~ 128;
#X obj 25 390 - 100;
#X obj 645 531 s~ l;
#X obj 680 531 s~ r;
#X obj 25 340 r~ l;
#X obj 102 418 vu 15 120 empty empty -1 -8 0 10 -66577 -1 1 0;
#X obj 101 365 env~ 128;
#X obj 101 390 - 100;
#X obj 101 340 r~ r;
#X obj 983 796 r~ l;
#X obj 1016 796 r~ r;
#X obj 139 390 threshold~ 1 100 0 1000;
#X obj 869 859 tabwrite~ oscilloscope;
#X obj 869 809 tgl 15 0 empty empty empty 17 7 0 10 -262144 -1 -1 1
1;
#X obj 849 809 bng 15 250 50 0 empty empty empty 17 7 0 10 -262144
-1 -1;
#X obj 957 832 +~;
#N canvas 534 57 720 645 reverb 0;
#X obj 158 296 vd~ monodel;
#X obj 310 127 delwrite~ monodel 500;
#X obj 306 38 inlet~;
#X obj 98 552 outlet~;
#X obj 590 537 outlet~;
#X obj 452 302 vd~ monodel;
#X obj 453 272 +~ 120;
#X obj 161 198 osc~ 0.065;
#X obj 454 205 osc~ 0.043;
#X obj 159 261 +~ 111;
#X obj 540 303 vd~ monodel;
#X obj 512 469 *~ 0.2;
#X obj 541 273 +~ 253;
#X obj 543 206 osc~ 0.057;
#X obj 70 295 vd~ monodel;
#X obj 73 197 osc~ 0.039;
#X obj 71 260 +~ 241;
#X obj 190 466 *~ 0.2;
#X text 296 460 TAPS MUST ADD TO <1!!!;
#X obj 618 23 inlet;
#X obj 618 67 clip 0 1;
#X obj 618 45 / 127;
#X msg 618 116 \$1 500;
#X obj 618 143 line;
#X obj 657 308 * 0.245;
#X obj 543 177 * 0.113;
#X obj 454 176 * 0.087;
#X obj 161 171 * 0.121;
#X obj 73 170 * 0.79;
#X obj 160 227 *~ 5;
#X obj 454 236 *~ 5;
#X obj 542 237 *~ 3;
#X obj 72 226 *~ 3;
#X connect 0 0 17 0;
#X connect 2 0 1 0;
#X connect 5 0 11 0;
#X connect 6 0 5 0;
#X connect 7 0 29 0;
#X connect 8 0 30 0;
#X connect 9 0 0 0;
#X connect 10 0 11 0;
#X connect 11 0 4 0;
#X connect 11 0 1 0;
#X connect 12 0 10 0;
#X connect 13 0 31 0;
#X connect 14 0 17 0;
#X connect 15 0 32 0;
#X connect 16 0 14 0;
#X connect 17 0 1 0;
#X connect 17 0 3 0;
#X connect 19 0 21 0;
#X connect 20 0 22 0;
#X connect 21 0 20 0;
#X connect 22 0 23 0;
#X connect 23 0 25 0;
#X connect 23 0 26 0;
#X connect 23 0 27 0;
#X connect 23 0 28 0;
#X connect 23 0 24 0;
#X connect 24 0 11 1;
#X connect 24 0 17 1;
#X connect 25 0 13 0;
#X connect 26 0 8 0;
#X connect 27 0 7 0;
#X connect 28 0 15 0;
#X connect 29 0 9 0;
#X connect 30 0 6 0;
#X connect 31 0 12 0;
#X connect 32 0 16 0;
#X restore 784 382 pd reverb;
#X obj 835 356 r s14;
#X obj 560 139 r s8;
#X obj 988 832 dac~;
#X obj 869 834 metro 200;
#N canvas 0 50 450 250 (subpatch) 0;
#X array oscilloscope 4096 float 4;
#X coords 0 1 4096 -1 800 300 1 0 0;
#X restore 22 581 graph;
#X obj 607 139 r s16;
#X obj 655 435 *~;
#X obj 559 373 sidechain~;
#X obj 514 173 drumzzz~;
#X obj 513 264 s~ drumzzz;
#X obj 783 330 r~ drumzzz;
#X obj 559 346 r~ drumzzz;
#X obj 574 445 r~ drumzzz;
#X obj 514 102 r pad1-8;
#N canvas 270 556 450 300 poly8 1;
#X obj 101 91 patch-poly8;
#X obj 198 226 outlet~;
#X obj 99 117 patch-poly8;
#X obj 99 141 patch-poly8;
#X obj 99 167 patch-poly8;
#X obj 325 88 patch-poly8;
#X obj 326 116 patch-poly8;
#X obj 327 145 patch-poly8;
#X obj 328 176 patch-poly8;
#X obj 203 33 r poly8;
#X obj 170 58 route 1 2 3 4 5 6 7 8;
#X connect 0 0 1 0;
#X connect 2 0 1 0;
#X connect 3 0 1 0;
#X connect 4 0 1 0;
#X connect 5 0 1 0;
#X connect 6 0 1 0;
#X connect 7 0 1 0;
#X connect 8 0 1 0;
#X connect 9 0 10 0;
#X connect 10 0 0 0;
#X connect 10 1 2 0;
#X connect 10 2 3 0;
#X connect 10 3 4 0;
#X connect 10 4 5 0;
#X connect 10 5 6 0;
#X connect 10 6 7 0;
#X connect 10 7 8 0;
#X restore 673 266 pd poly8;
#X connect 2 0 3 0;
#X connect 3 0 1 0;
#X connect 6 0 2 0;
#X connect 8 0 9 0;
#X connect 8 0 13 0;
#X connect 9 0 7 0;
#X connect 10 0 8 0;
#X connect 11 0 17 0;
#X connect 11 0 21 0;
#X connect 12 0 21 1;
#X connect 13 0 7 1;
#X connect 15 0 22 0;
#X connect 16 0 14 0;
#X connect 17 0 14 0;
#X connect 18 0 4 0;
#X connect 18 1 5 0;
#X connect 19 0 18 1;
#X connect 20 0 27 1;
#X connect 22 0 14 0;
#X connect 24 0 27 2;
#X connect 25 0 4 0;
#X connect 25 0 5 0;
#X connect 26 0 25 0;
#X connect 27 0 28 0;
#X connect 29 0 18 0;
#X connect 30 0 26 0;
#X connect 31 0 4 0;
#X connect 31 0 5 0;
#X connect 32 0 27 0;
#X connect 33 0 25 1;
#X connect 33 0 18 0;
