#N canvas 1004 172 450 336 10;
#X obj 123 144 sawtooth, f 30;
#X obj 250 90 r s2;
#X obj 283 90 r s3;
#X obj 316 90 r s4;
#X obj 136 92 r s10;
#X obj 174 92 r s11;
#X obj 349 90 r s5;
#X obj 172 53 r s12;
#X obj 210 53 r s13;
#X obj 82 99 inlet;
#X obj 123 188 outlet~;
#X connect 0 0 10 0;
#X connect 1 0 0 5;
#X connect 2 0 0 6;
#X connect 3 0 0 7;
#X connect 4 0 0 1;
#X connect 5 0 0 2;
#X connect 6 0 0 8;
#X connect 7 0 0 3;
#X connect 8 0 0 4;
#X connect 9 0 0 0;
