#N canvas 667 58 380 306 10;
#X obj 22 83 dbtorms;
#X obj 22 112 / 0.7;
#X obj 22 53 env~ 512;
#X msg 22 197 \$1 50;
#X obj 22 226 line~;
#X obj 22 22 inlet~;
#X obj 22 248 outlet~;
#X text 60 112 (empirical);
#X text 77 47 (smallest that works w/ bass);
#X obj 82 227 line 50;
#X obj 210 225 hsl 80 10 0 127 0 0 empty empty empty -2 -8 0 10 -262144
-258113 -1 7900 1;
#X obj 82 250 * 127;
#X obj 22 139 * -1;
#X obj 22 161 + 1;
#X text 273 208 off;
#X connect 0 0 1 0;
#X connect 1 0 12 0;
#X connect 2 0 0 0;
#X connect 3 0 4 0;
#X connect 3 0 9 0;
#X connect 4 0 6 0;
#X connect 5 0 2 0;
#X connect 9 0 11 0;
#X connect 11 0 10 0;
#X connect 12 0 13 0;
#X connect 13 0 3 0;
#X coords 0 -1 1 1 100 40 1 200 200;
